<svg xmlns="http://www.w3.org/2000/svg" viewBox="0 0 1078.64 663.28"><title>404</title><g id="Layer_2" data-name="Layer 2"><g id="Layer_1-2" data-name="Layer 1"><path d="M837,420.35c158.38-24.21,222.4-89.27,118.17-145.41-67.77-36.5-189.07-30.48-212.71-76.45s-80.06-108-162.29-84.95c-80.08,22.51-88.77,66.9-180.41,79.45-126.08,17.28-256-5-254.46,50.47s68.54,60,102.41,93.44-201,87.4-78,133.92c81.93,31,161.5-7.5,260.77-20S556,505.64,614.06,509.29C781.08,519.79,771.62,430.34,837,420.35Z" style="opacity: 0.1;"/><rect x="502.41" y="402.44" width="28" height="5" transform="translate(-116.34 578.94) rotate(-53.48)" style="fill: #fff200;"/><rect x="556.41" y="402.44" width="28" height="5" transform="translate(420.02 1088.11) rotate(-112.96)" style="fill: #fff200;"/><rect x="507.41" y="306.57" width="28" height="5" transform="matrix(0.6, 0.8, -0.8, 0.6, 459.47, -293.89)" style="fill: #fff200;"/><rect x="548.41" y="306.57" width="28" height="5" transform="translate(1129.97 9.55) rotate(123.39)" style="fill: #fff200;"/><rect x="516.41" y="107.44" width="28" height="5" transform="translate(126.39 470.76) rotate(-53.48)" style="fill: #fff200;"/><rect x="562.41" y="107.44" width="28" height="5" transform="translate(700 683.58) rotate(-112.96)" style="fill: #fff200;"/><rect x="510.41" y="10.57" width="28" height="5" transform="matrix(0.6, 0.8, -0.8, 0.6, 222.81, -416.14)" style="fill: #fff200;"/><rect x="560.41" y="10.57" width="28" height="5" transform="translate(901.43 -459.36) rotate(123.39)" style="fill: #fff200;"/><path d="M272.41,170.44c-47,16,22.4,82.48-30.8,148s-156,79.14-117.91,127.91,200.36-60.76,256.22-13.59,36.35,117.51,122.35,97.52,164.9-99.92,269.52-76.74,288.14-24.78,236.72-115.91-133.88-40-227.85-94.33S669.83,91.45,601.57,133.82,516.45,237.74,466.8,237.74,333,149.8,272.41,170.44Z" style="fill:none;stroke:#2539ff;stroke-miterlimit:10;stroke-width:11.78602306825919px;opacity:0.08"/><path d="M779.81,481.3C894.87,499.2,1091,436,1029.32,342" style="fill:none;stroke:#0cc5ff;stroke-miterlimit:10;stroke-width:12.712488260191533px;opacity:0.19"/><path d="M103.91,485.94c44.53,49.57,190.33-73.7,254-27s54.18,123.94,146.25,97" style="fill:none;stroke:#0cc5ff;stroke-miterlimit:10;stroke-width:12.712488260191533px;opacity:0.19"/><path d="M464.81,209.55c-54.87,0-157.9-111.61-221.47-61.85-39.92,31.26,3.57,90.24-27.44,151.1" style="fill:none;stroke:#0cc5ff;stroke-miterlimit:10;stroke-width:13.027344174299085px;opacity:0.19"/><path d="M811.72,215.74c-103.88-60.08-122.5-167.88-198-121" style="fill:none;stroke:#0cc5ff;stroke-miterlimit:10;stroke-width:13.027344174299085px;opacity:0.19"/><path d="M80.27,358.36c4.56-2.28,7.41-4.56,9.69-4a4.64,4.64,0,0,1,1.32.58c-5.58,9.59-14.18,15.71-23.83,15.37C47.25,369.6,34.83,351.37,37,329c2.18-22.71,13.64-41.31,30.47-41.31S97.93,306.21,97.93,329a52.82,52.82,0,0,1-5.24,23.32c-1.51-1-3.85-1.53-7.29.32C78,356.65,75.72,360.64,80.27,358.36Z" style="fill:#ffe5c1"/><path d="M95.09,328.73l7.4,11.39s2.85,4.56,0,4.56H88.82Z" style="fill:#ffe5c1"/><ellipse cx="88.82" cy="331.86" rx="2.85" ry="4.84"/><path d="M91.1,316.77c-3.42,0-8,4-8,6.83s2.95-2.1,5.13-3.42c2.85-1.7,4.56.57,4.56-1.13S92.37,316.77,91.1,316.77Z"/><path d="M75.15,308.79s17.66,4.56,24.5-4.56,6.47-24.22-13.11-24.49c-21.13-.3-50.85-1-53.13,8.7s-5.55,32.88-2.13,48.27S41.81,366.52,46.51,359s6.42-10.35,3.57-25.73,12-13.67,12.53-8,4.66,6.33,5.7,4.56c1.52-2.59-1.16-8.13,3.42-11.39S75.15,308.79,75.15,308.79Z" style="fill:#563700"/><path d="M7.21,432.28c-10.27,30.12-11.77,60.05,10.26,53C37.8,478.73,76.72,459.62,79,427.72c1.36-19.05-2.36-39.48-10.26-51.27-5.33-8-13.89-11.06-17.87-12.7-4.28-1.76-11.48.87-18.08,10.4C23.24,387.93,13.84,412.86,7.21,432.28Z" style="fill:#cdd2fc"/><polygon points="153.18 441.56 103.81 466.05 183.11 466.05 190.89 442.72 153.18 441.56" style="fill:#b3b3b3"/><rect x="103.81" y="466.05" width="78.53" height="7.39" style="fill:gray"/><rect x="193.8" y="385.24" width="7.78" height="83.2" transform="translate(120.55 -37.19) rotate(15.41)" style="fill:#999"/><path d="M61.48,392c.57-21.65-29.63-23.36-24.5,3.42s5.38,62.2,10.25,71.78c4.78,9.39,48.38-.2,68.94-8.55,8.51-3.45,16-21.08-3.42-14.81C101.26,447.53,84,446.74,74.58,445c-6.45-1.23-9.16-.3-9.69-5.7C62.05,410.2,61.48,392,61.48,392Z" style="fill:#9fa9fc"/><path d="M160.94,443.94c-13.71-13.21-22.56-14.68-31-10.76a81.31,81.31,0,0,0-17.26,10.76c-2.21,2-4.42,15.17,3.54,14.68s15.93-8.8,19.47-6.85,14.59,2.45,20.79,1.47S160.94,443.94,160.94,443.94Z" style="fill:#ffe5c1"/><text transform="translate(34.35 271.38) rotate(-8.51)" style="font-size:93.46597290039062px;fill:#9fa9fc;font-family:Roboto-Regular, Roboto">?</text><path d="M6.86,232.44c6,1.49,11.9,4.46,11.16,11.9s-3.72,17.12,4.46,20.84,8.93,1.49,8.93,1.49" style="fill:none;stroke:#9fa9fc;stroke-miterlimit:10;stroke-width:5.208671033382416px"/><path d="M95.07,211.57c3.81,4.82,6.7,10.81,1.57,16.25s-13.4,11.27-9.2,19.22,6.16,6.63,6.16,6.63" style="fill:none;stroke:#9fa9fc;stroke-miterlimit:10;stroke-width:5.208671033382416px"/><g style="opacity:0.68"><polygon points="991.18 75.67 981.44 90.77 989.65 106.76 1007.6 107.64 1017.34 92.53 1009.13 76.55 991.18 75.67" style="fill:#9fa9fc"/><rect x="923.77" y="39.58" width="20.57" height="20.57" transform="translate(176.01 -498.15) rotate(32.81)" style="fill:#9fa9fc"/><rect x="943.86" y="52.53" width="20.57" height="20.57" transform="translate(186.24 -506.97) rotate(32.81)" style="fill:#9fa9fc"/><rect x="963.96" y="65.49" width="20.57" height="20.57" transform="translate(196.46 -515.79) rotate(32.81)" style="fill:#9fa9fc"/><rect x="1013.95" y="97.72" width="20.57" height="20.57" transform="translate(221.9 -537.74) rotate(32.81)" style="fill:#9fa9fc"/><rect x="1034.05" y="110.67" width="20.57" height="20.57" transform="translate(232.12 -546.56) rotate(32.81)" style="fill:#9fa9fc"/><rect x="1054.14" y="123.62" width="20.57" height="20.57" transform="translate(242.35 -555.38) rotate(32.81)" style="fill:#9fa9fc"/><path d="M997.3,116.77l-19.92-12.85a13.33,13.33,0,0,1,19.92,12.85Z" style="fill:#9fa9fc"/><rect x="982.92" y="110.48" width="2.22" height="10.01" transform="translate(219.54 -514.76) rotate(32.81)" style="fill:#9fa9fc"/><path d="M953.33,131.57A35.78,35.78,0,0,0,982.12,150" style="fill:none;stroke:#9fa9fc;stroke-miterlimit:10;stroke-width:2px"/><path d="M959.79,128.25a28.55,28.55,0,0,0,22.68,14.48" style="fill:none;stroke:#9fa9fc;stroke-miterlimit:10;stroke-width:2px"/><path d="M967.18,124.46a20.16,20.16,0,0,0,15.69,10" style="fill:none;stroke:#9fa9fc;stroke-miterlimit:10;stroke-width:2px"/><path d="M974.46,120.72a11.74,11.74,0,0,0,3.66,3.7,11.9,11.9,0,0,0,5.16,1.84" style="fill:none;stroke:#9fa9fc;stroke-miterlimit:10;stroke-width:2px"/></g><polygon points="799.61 419.44 730.02 419.44 695.22 479.71 730.02 539.98 799.61 539.98 834.41 479.71 799.61 419.44" style="fill:#9fa9fc;opacity:0.44"/><polygon points="893.91 467.5 850.91 467.5 829.41 504.74 850.91 541.98 893.91 541.98 915.41 504.74 893.91 467.5" style="fill:#9fa9fc;opacity:0.44"/><polygon points="983.91 234.5 940.91 234.5 919.41 271.74 940.91 308.98 983.91 308.98 1005.41 271.74 983.91 234.5" style="fill:none;stroke:#9fa9fc;stroke-miterlimit:10;stroke-width:3px;opacity:0.44"/><polygon points="523.02 504.94 495.28 504.94 481.41 528.96 498.28 556.44 526.02 556.44 536.89 528.96 523.02 504.94" style="fill:none;stroke:#9fa9fc;stroke-miterlimit:10;stroke-width:1.9352716047258642px;opacity:0.44"/><path d="M553.41,486.44s56-45,109-55,102-5,102-5" style="fill:none;stroke:#0cc5ff;stroke-miterlimit:10;stroke-width:12.712488260191533px;opacity:0.19"/><path d="M613.91,158.94c-12,7-65,59-77,76" style="fill:none;stroke:#0cc5ff;stroke-miterlimit:10;stroke-width:13.027344174299085px;opacity:0.19"/><path d="M348.62,613c0-4.38,2.28-5.76,5.76-5.76h15.06c8.28,0,14.93,4.08,14.93,13.68,0,7.86-5.46,13.68-15,13.68H358.46v11.7a4.92,4.92,0,1,1-9.84,0Zm9.84,14h9.18c4,0,6.89-2.4,6.89-6.12,0-4.32-3-6.12-7.91-6.12h-8.16Z" style="&#10;    fill: white;&#10;"/><path d="M416.65,642c0,3.66.91,4.5.91,5.88,0,2-1.86,3.36-4,3.36-3.79,0-5-2.4-5.16-5.1a15.09,15.09,0,0,1-12,5.1c-5,0-9.9-3.42-9.9-8.94,0-7.26,5.52-9.3,12.24-10.08l5.34-.6c2.1-.24,3.78-.72,3.78-3.24s-2.58-3.6-5.52-3.6c-6.48,0-6.66,4.8-10.14,4.8a3.49,3.49,0,0,1-3.72-3.36c0-3.48,4.92-7.92,13.92-7.92,8.4,0,14.21,2.7,14.21,9Zm-8.75-6.3a7.87,7.87,0,0,1-3.78,1.38l-3.18.48c-3.66.54-5.64,1.68-5.64,4.32,0,2,1.86,3.6,4.86,3.6,4.8,0,7.74-3.12,7.74-6.36Z" style="&#10;    fill: white;&#10;"/><path d="M453.91,647.86c0,10.56-6.47,15.42-15.6,15.42-6.65,0-13.19-3-13.19-7.26a3.64,3.64,0,0,1,3.6-3.72c3.66,0,4.38,4.5,9.3,4.5,5.34,0,7.5-2.7,7.5-9.6v-1.8h-.12a10.78,10.78,0,0,1-8.46,4.2c-9.24,0-14-6-14-14.64,0-11.34,6.36-16.68,13.74-16.68,4.26,0,7.62,2,9.24,5.22H446v-1.08c0-2.7,1.39-4.14,4-4.14s4,1.44,4,4.14Zm-15.29-4.74c3.9,0,6.9-2.58,6.9-8.82s-2.4-9.18-6.48-9.18c-5.64,0-7.38,4.14-7.38,9.54C431.66,638.68,433.64,643.12,438.62,643.12Z" style="&#10;    fill: white;&#10;"/><path d="M468.31,636.4c0,4.62,3,8,8.1,8,6.6,0,6.6-4.32,10.14-4.32a3.62,3.62,0,0,1,3.6,3.42c0,5.28-8.46,7.74-13.74,7.74-12.23,0-16.85-8.28-16.85-15.9,0-10.2,6.17-17,16.55-17,10.08,0,15.84,7.14,15.84,14.34,0,3-.9,3.78-3.84,3.78Zm15.36-5a7.49,7.49,0,0,0-7.37-7c-4.39,0-7,2.7-8,7Z" style="&#10;    fill: white;&#10;"/><path d="M516,622.66c0-2.64,1.19-4.38,4-4.38s4,1.74,4,4.38v1.14H524c2.47-3.24,5.65-5.52,10.62-5.52,5.29,0,11,2.64,11,11.52v17c0,2.34-1,4.38-4.38,4.38s-4.37-2-4.37-4.38v-15.3c0-3.54-1.75-6.06-5.52-6.06a6.8,6.8,0,0,0-6.66,6.9v14.46c0,2.34-1,4.38-4.38,4.38s-4.38-2-4.38-4.38Z" style="&#10;    fill: white;&#10;"/><path d="M567.49,618.28c10.56,0,16.2,7.2,16.2,16.44,0,8.76-4.26,16.5-16.2,16.5s-16.19-7.74-16.19-16.5C551.3,625.48,556.94,618.28,567.49,618.28Zm0,26.46c5.22,0,7.44-4.68,7.44-10,0-5.7-2.34-10-7.44-10s-7.43,4.26-7.43,10C560.06,640.06,562.27,644.74,567.49,644.74Z" style="&#10;    fill: white;&#10;"/><path d="M591.61,624.82h-1.5c-2.46,0-3.47-1-3.47-2.88s1-2.88,3.47-2.88h1.5v-5.34a4.38,4.38,0,0,1,8.76,0v5.34H603c2.58,0,4,.78,4,2.88s-1.38,2.88-4,2.88h-2.64v17.52c0,1.32.72,2,2.28,2h1.26a2.75,2.75,0,0,1,3.06,2.94c0,2.52-2.16,3.9-6.36,3.9-6.36,0-9-2.64-9-7.8Z" style="&#10;    fill: white;&#10;"/><path d="M632.65,624.82h-2c-2.45,0-3.48-1-3.48-2.88s1-2.88,3.48-2.88h2v-4.38c0-5.52,4.56-8.46,9.66-8.46,3.18,0,5.76,1.26,5.76,4.2a2.94,2.94,0,0,1-2.82,3c-.66,0-1.26-.18-1.92-.18a1.83,1.83,0,0,0-1.92,2v3.78h2.7c2.58,0,4,.78,4,2.88s-1.38,2.88-4,2.88h-2.7v22a4.38,4.38,0,0,1-8.76,0Z" style="&#10;    fill: white;&#10;"/><path d="M667,618.28c10.56,0,16.2,7.2,16.2,16.44,0,8.76-4.26,16.5-16.2,16.5s-16.2-7.74-16.2-16.5C650.77,625.48,656.41,618.28,667,618.28Zm0,26.46c5.22,0,7.44-4.68,7.44-10,0-5.7-2.34-10-7.44-10s-7.44,4.26-7.44,10C659.53,640.06,661.75,644.74,667,644.74Z" style="&#10;    fill: white;&#10;"/><path d="M718.51,646.84c0,2.64-1.2,4.38-4,4.38s-4-1.74-4-4.38V645.7h-.12c-2.46,3.24-5.64,5.52-10.62,5.52-5.28,0-11-2.64-11-11.52v-17c0-2.34,1-4.38,4.38-4.38s4.38,2,4.38,4.38V638c0,3.54,1.74,6.06,5.52,6.06a6.8,6.8,0,0,0,6.66-6.9V622.66c0-2.34,1-4.38,4.38-4.38s4.38,2,4.38,4.38Z" style="&#10;    fill: white;&#10;"/><path d="M725.47,622.66c0-2.64,1.2-4.38,4-4.38s4,1.74,4,4.38v1.14h.12c2.46-3.24,5.64-5.52,10.62-5.52,5.28,0,11,2.64,11,11.52v17c0,2.34-1,4.38-4.38,4.38s-4.38-2-4.38-4.38v-15.3c0-3.54-1.74-6.06-5.52-6.06a6.8,6.8,0,0,0-6.66,6.9v14.46c0,2.34-1,4.38-4.38,4.38s-4.38-2-4.38-4.38Z" style="&#10;    fill: white;&#10;"/><path d="M791.83,647.08c0,2.7-1.26,4.14-4,4.14s-4-1.44-4-4.14V645.7h-.12c-1.44,3.72-5,5.52-9.24,5.52-7.32,0-13.74-5.34-13.74-16.68,0-8.4,4.26-16.26,13.5-16.26,3.9,0,6.9,1.62,8.64,4.44h.12V610.84a4.38,4.38,0,0,1,8.76,0Zm-15.3-2.7c5.1,0,7-4.56,7-9.54,0-4.5-1.68-9.78-7-9.72-5.58,0-7,5.64-7,9.72C769.57,640,771.85,644.26,776.53,644.38Z" style="&#10;    fill: white;&#10;"/><path d="M629.41,353.48h.14c57.33,0,103.81-65.55,103.81-146.41S686.88,60.66,629.55,60.66h-.14" style="fill:none;stroke: #ffffff;stroke-linecap:round;stroke-linejoin:round;stroke-width:25.489216980205548px;"/><path d="M468.21,60.66c-57.27.11-103.68,65.62-103.68,146.41s46.41,146.3,103.68,146.41" style="fill:none;stroke: #ffffff;stroke-linecap:round;stroke-linejoin:round;stroke-width:25.489216980205548px;"/><path d="M487.1,34.74h32.26a0,0,0,0,1,0,0V85.87a0,0,0,0,1,0,0H487.1A18.87,18.87,0,0,1,468.23,67V53.61A18.87,18.87,0,0,1,487.1,34.74Z" style="fill: #008000;"/><rect x="500.08" y="44.38" width="43.59" height="8.38" rx="4.19" style="fill: #008000;"/><rect x="500.08" y="67.85" width="43.59" height="8.38" rx="4.19" style="fill: #008000;"/><path d="M600,34.74h32.26a0,0,0,0,1,0,0V85.87a0,0,0,0,1,0,0H600A18.87,18.87,0,0,1,581.13,67V53.61A18.87,18.87,0,0,1,600,34.74Z" transform="translate(1213.4 120.61) rotate(-180)" style="fill:#ec3f3f"/><path d="M600,328.16h32.26a0,0,0,0,1,0,0v51.14a0,0,0,0,1,0,0H600a18.87,18.87,0,0,1-18.87-18.87V347A18.87,18.87,0,0,1,600,328.16Z" transform="translate(1213.4 707.45) rotate(-180)" style="fill: #008000;"/><rect x="556.82" y="337.8" width="43.59" height="8.38" rx="4.19" transform="translate(1157.23 683.98) rotate(180)" style="fill: #008000;"/><rect x="556.82" y="361.27" width="43.59" height="8.38" rx="4.19" transform="translate(1157.23 730.92) rotate(180)" style="fill: #008000;"/><path d="M490.72,328.16H523a0,0,0,0,1,0,0v51.14a0,0,0,0,1,0,0H490.72a18.87,18.87,0,0,1-18.87-18.87V347A18.87,18.87,0,0,1,490.72,328.16Z" style="fill:#ec3f3f"/><path d="M293.21,346.15V74.73c0-14.08-21.29-19.39-30-7.49L148.94,223.8c-6.82,9.35.95,21.53,13.74,21.53H363.76" style="fill:none;stroke: #ffffff;stroke-linecap:round;stroke-linejoin:round;stroke-width:25.489216980205548px;"/><path d="M881.86,346.15V74.73c0-14.08-21.29-19.39-30-7.49L737.6,223.8c-6.83,9.35.94,21.53,13.73,21.53H952.41" style="fill:none;stroke: #ffffff;stroke-linecap:round;stroke-linejoin:round;stroke-width:25.489216980205548px;"/></g></g></svg>