<svg id="Layer_1" data-name="Layer 1" xmlns="http://www.w3.org/2000/svg" viewBox="0 0 20 20"><title>customer</title><path d="M0,11.72l.09-.38A2.62,2.62,0,0,1,2.53,9.41a12.17,12.17,0,0,1,1.71.09,1.84,1.84,0,0,1,1,.5l-.13.15a5.53,5.53,0,0,0-1.47,3.16,19.48,19.48,0,0,0-.08,3v1.15l-.26,0H1.22A1.17,1.17,0,0,1,0,16.57a.09.09,0,0,0,0-.05Z"/><path d="M9.76,18.7H6.27a1.88,1.88,0,0,1-.67-.1,1.28,1.28,0,0,1-.87-1.21c0-1.11,0-2.22,0-3.33A4.57,4.57,0,0,1,7.16,10,4.93,4.93,0,0,1,9.24,9.4a8.26,8.26,0,0,1,2.53.13,4.73,4.73,0,0,1,3.45,4c.09,1.29,0,2.59,0,3.88a1.35,1.35,0,0,1-.15.52.93.93,0,0,1-.79.63c-.66.06-1.32.11-2,.12-.86,0-1.72,0-2.58,0Z"/><path d="M10,1.28a3.4,3.4,0,1,1-3.4,3.4A3.39,3.39,0,0,1,10,1.28Z"/><path d="M16.44,17.41V17.2c0-1,0-2,0-3a5.84,5.84,0,0,0-1.16-3.59c-.16-.2-.33-.39-.51-.6a2.25,2.25,0,0,1,1.38-.58A5.8,5.8,0,0,1,18,9.49,2.62,2.62,0,0,1,20,12v4.19a1.16,1.16,0,0,1-1.11,1.21c-.76,0-1.53,0-2.3,0Z"/><path d="M3.13,3.78A2.15,2.15,0,1,1,1,5.92,2.13,2.13,0,0,1,3.13,3.78Z"/><path d="M16.87,3.78a2.15,2.15,0,1,1-2.14,2.14A2.14,2.14,0,0,1,16.87,3.78Z"/></svg>