<svg id="Layer_1" data-name="Layer 1" xmlns="http://www.w3.org/2000/svg" viewBox="0 0 20 20"><title>dashboard</title><path d="M19.38,15H2.5V3.13a.63.63,0,0,0-.62-.63H.63A.63.63,0,0,0,0,3.13V16.25A1.25,1.25,0,0,0,1.25,17.5H19.38a.62.62,0,0,0,.62-.62V15.63A.63.63,0,0,0,19.38,15ZM18.13,3.75H13.51a.94.94,0,0,0-.66,1.6l1.27,1.27L11.25,9.48,8.38,6.62a1.24,1.24,0,0,0-1.76,0L3.93,9.3a.63.63,0,0,0,0,.88l.89.89a.63.63,0,0,0,.88,0l1.8-1.8,2.87,2.86a1.24,1.24,0,0,0,1.76,0l3.75-3.75,1.27,1.27A.94.94,0,0,0,18.75,9V4.38A.63.63,0,0,0,18.13,3.75Z"/></svg>