<svg id="Layer_1" data-name="Layer 1" xmlns="http://www.w3.org/2000/svg" viewBox="0 0 20 20"><title>employee_1</title><path d="M14,5.32c.44.14.53.3.41.74a2.34,2.34,0,0,1-.88,1.31.53.53,0,0,0-.18.28,6.67,6.67,0,0,1-.9,2.23,2.91,2.91,0,0,1-3.3,1.33,2.82,2.82,0,0,1-1.77-1.5A19.93,19.93,0,0,1,6.6,7.8a1.18,1.18,0,0,0-.28-.47A2.5,2.5,0,0,1,5.6,6.07.56.56,0,0,1,6,5.35c0-.41-.11-.8-.14-1.2A3.31,3.31,0,0,1,9.17.35a8,8,0,0,1,1.88.19c.29.06.52.37.81.48s.62.06.89.18a1.81,1.81,0,0,1,1.14,1.47c.09.75.08,1.51.11,2.27A2.34,2.34,0,0,1,14,5.32Z"/><path d="M8.81,19.65s.26-2.69.42-4a.6.6,0,0,1,.33-.44,1.79,1.79,0,0,1,.89,0c.14,0,.32.35.35.58.15,1.19.38,3.86.38,3.86Z"/><path d="M10,12.13c.56,0,1.37.93,1.21,1.37l-.42,1.18c0,.08-.2.14-.31.15-1.2.11-1.2.1-1.58-1l-.11-.34C8.63,13.07,9.45,12.13,10,12.13Z"/><path d="M18.76,15.27a3.4,3.4,0,0,0-2.62-2.48l-2.38-.66-.85,7.52H18.8a1.68,1.68,0,0,0,0-.2c0-1.15,0-2.3,0-3.45A3.06,3.06,0,0,0,18.76,15.27Z"/><path d="M6.26,12.14l-.18.06c-.79.22-1.6.4-2.39.64a3.13,3.13,0,0,0-2.49,2.7,39.65,39.65,0,0,0,0,4.08l0,0h6Z"/></svg>