<svg id="Layer_1" data-name="Layer 1" xmlns="http://www.w3.org/2000/svg" viewBox="0 0 20 20"><title>forecast</title><path d="M17.73,8.94a2.77,2.77,0,0,0-3.92-2,3.33,3.33,0,0,0-6,2v0a2.78,2.78,0,0,0,.55,5.5h8.89a2.77,2.77,0,0,0,.51-5.5ZM4.31,10.14a3.33,3.33,0,0,1,4.4-5,4.46,4.46,0,0,1,2.4-.72h.07l.31-.93A.45.45,0,0,0,10.92,3L8.3,3.83,7.07,1.36a.46.46,0,0,0-.81,0L5,3.83,2.41,3a.46.46,0,0,0-.57.58l.88,2.61L.25,7.38a.45.45,0,0,0,0,.8L2.72,9.42,1.84,12a.45.45,0,0,0,.58.57l2.05-.68c0-.08,0-.16,0-.25a4,4,0,0,1,.21-1.25c-.12-.09-.24-.18-.35-.28Zm2.42-2A4.42,4.42,0,0,1,7.84,5.9a2.14,2.14,0,0,0-1.17-.34A2.22,2.22,0,0,0,4.44,7.78a2.18,2.18,0,0,0,.74,1.63A3.9,3.9,0,0,1,6.73,8.12Zm11.48,7.51a.56.56,0,0,0-.76.21l-1.27,2.22a.56.56,0,0,0,.21.76.68.68,0,0,0,.28.07.55.55,0,0,0,.48-.28l1.27-2.22A.56.56,0,0,0,18.21,15.63Zm-3.33,0a.56.56,0,0,0-.76.21l-1.27,2.22a.56.56,0,0,0,.21.76.68.68,0,0,0,.27.07.58.58,0,0,0,.49-.28l1.27-2.22A.56.56,0,0,0,14.88,15.63Zm-3.33,0a.56.56,0,0,0-.76.21L9.52,18.06a.55.55,0,0,0,.21.76.64.64,0,0,0,.27.07.55.55,0,0,0,.48-.28l1.27-2.22A.56.56,0,0,0,11.55,15.63Zm-3.34,0a.56.56,0,0,0-.76.21L6.18,18.06a.57.57,0,0,0,.21.76.68.68,0,0,0,.28.07.55.55,0,0,0,.48-.28l1.27-2.22A.56.56,0,0,0,8.21,15.63Z"/></svg>