<svg id="Layer_1" data-name="Layer 1" xmlns="http://www.w3.org/2000/svg" viewBox="0 0 75 60"><title>DRK TO AGM</title><path d="M22,25.31v9.38H34.34V44.92a4.7,4.7,0,0,1-4.68,4.68H11.82a4.69,4.69,0,0,1-4.68-4.68V16.55a4.69,4.69,0,0,1,4.68-4.68H29.66a4.7,4.7,0,0,1,4.68,4.68v8.76Z" style="fill:#fff"/><path d="M63.19,12.87a3.68,3.68,0,0,1,3.67,3.68V44.92a3.68,3.68,0,0,1-3.67,3.68H45.35a3.68,3.68,0,0,1-3.68-3.68V16.55a3.68,3.68,0,0,1,3.68-3.68H63.19m0-1H45.35a4.69,4.69,0,0,0-4.68,4.68V44.92a4.69,4.69,0,0,0,4.68,4.68H63.19a4.69,4.69,0,0,0,4.67-4.68V16.55a4.69,4.69,0,0,0-4.67-4.68Z" style="fill:#fff"/><polygon points="45 38.11 45 34.69 34.34 34.69 34.34 25.31 45 25.31 45 21.9 59.05 30 45 38.11" style="fill:#fff"/></svg>