<svg id="Layer_1" data-name="Layer 1" xmlns="http://www.w3.org/2000/svg" viewBox="0 0 75 60"><title>employee_onboarding2</title><polygon points="47.46 42.11 47.39 42.11 46 39.02 42.25 42.11 44.7 48.5 47.46 42.11" style="fill:#fff"/><path d="M48,4.72c0-4.33-7.27-3.37-10.63-3.37-3.88,0-9.29-.2-11.66,2.51-2,2.27-1.28,7.17-1.28,10.43A13,13,0,0,0,24.91,18a2.64,2.64,0,0,1,.92-.31,11.14,11.14,0,0,1,4.25-7.8c-.7,1.22-.78,2.54,2.93,1.72a64.65,64.65,0,0,0,9.48-2.94,11.15,11.15,0,0,1,6.18,9,2.66,2.66,0,0,1,1.08.28,13,13,0,0,0,.52-3.61c0-1.89.11-4.62.19-6.57S49.78,4.45,48,4.72Z" style="fill:#fff"/><path d="M33,11.56a56.56,56.56,0,0,0,6.17-1.74,11.51,11.51,0,0,0-1.45-.1H37a11.3,11.3,0,0,0-6.47,2,3.37,3.37,0,0,0,.6.05A8.74,8.74,0,0,0,33,11.56Z" style="fill:#fff"/><path d="M48.87,19.69a1.11,1.11,0,0,0-.3-.08l-1.74-.08-.15-1.74a9.22,9.22,0,0,0-4.34-7,66.29,66.29,0,0,1-8.9,2.7,10.9,10.9,0,0,1-2.32.29,4.27,4.27,0,0,1-1.75-.32,9,9,0,0,0-1.54,4.32l-.14,1.58-1.57.23a.62.62,0,0,0-.26.09l-.14.07a11.2,11.2,0,0,0-.08,1.3V28A11.37,11.37,0,0,0,37,39.34h.74A11.37,11.37,0,0,0,49.08,28v-6.9A11.41,11.41,0,0,0,49,19.76ZM29.94,21a2.69,2.69,0,1,1,2.69,2.69A2.69,2.69,0,0,1,29.94,21Zm7.42,11.49a5.84,5.84,0,0,1-4.67-2.38H42A5.84,5.84,0,0,1,37.36,32.52Zm4.73-8.8A2.69,2.69,0,1,1,44.78,21,2.69,2.69,0,0,1,42.09,23.72Z" style="fill:#fff"/><path d="M27.15,27.19a3.86,3.86,0,0,1,0-7.71" style="fill:#fff"/><path d="M48,27.19a3.86,3.86,0,1,0,0-7.71" style="fill:#fff"/><path d="M42.29,47.81,42,49.15l.17,1.51,1,8.71.05.42L65.88,60l-.7-10.19a8.65,8.65,0,0,0-7-6.19l-8.57-1.39-.29.67-2.76,6.39L44.59,53.8l-1.76-4.58ZM48.08,54h9.09v2H48.08Z" style="fill:#fff"/><path d="M31.94,59.37l1-8.71.12-1.1,0-.22-.41-2-.72,1.88L30.13,53.8l-1.95-4.51L25.43,42.9l-.3-.69-8.23,1.4a8.69,8.69,0,0,0-6.9,6l-.88,9.88,22.78.21Z" style="fill:#fff"/><polygon points="40.21 50.94 40.02 50.94 34.98 50.94 34.92 50.94 33.92 59.6 41.21 59.6 40.21 50.94" style="fill:#fff"/><polygon points="34.97 48.89 40.03 48.89 40.96 44.34 40.85 44.04 33.98 44.04 34.97 48.89" style="fill:#fff"/><polygon points="32.47 42.11 32.4 42.11 28.65 39.02 27.26 42.11 30.02 48.5 32.47 42.11" style="fill:#fff"/></svg>