<svg id="Layer_1" data-name="Layer 1" xmlns="http://www.w3.org/2000/svg" viewBox="0 0 75 60"><title>FARMER ONBOARD 2</title><path d="M54.81,20.46A16.91,16.91,0,0,0,49.9,8.59L41,13.84a12.75,12.75,0,0,1,10,12.43V31A16.86,16.86,0,0,0,54.81,20.46Z" style="fill:#fff"/><path d="M37.33,13.57,48.24,7.12A18.63,18.63,0,0,0,46.42,5.9,16.81,16.81,0,0,0,24.93,31V26.27A12.72,12.72,0,0,1,37.33,13.57Z" style="fill:#fff"/><path d="M55.86.41,51.59,7.17a8.74,8.74,0,0,1,1.8,2c.8,1.24,1.57,2.59,1.57,2.59l7.61-4.13s.73-2.16-2-5.05C58.11,0,55.86.41,55.86.41Z" style="fill:#fff"/><path d="M38.33,15.66h-.68A10.62,10.62,0,0,0,27,26.27v6.45A10.62,10.62,0,0,0,37.65,43.34h.68A10.62,10.62,0,0,0,48.94,32.72V26.27A10.62,10.62,0,0,0,38.33,15.66Zm4.08,8.06a2.51,2.51,0,1,1-2.51,2.51A2.51,2.51,0,0,1,42.41,23.72Zm-8.84,0a2.51,2.51,0,1,1-2.51,2.51A2.51,2.51,0,0,1,33.57,23.72ZM45.51,34.78c-.24,1-1.82,1-1.78,1L38,35.66l-5.74.08c0,.07-1.53,0-1.78-1A2.25,2.25,0,0,1,30.8,33s.46,1.34,1.59,1.08c.82-.19,1.35-1.26,2.09-1.57a16.5,16.5,0,0,1,3.44-.53h.14a16.4,16.4,0,0,1,3.44.53c.74.31,1.27,1.38,2.09,1.57,1.13.26,1.59-1.08,1.59-1.08A2.25,2.25,0,0,1,45.51,34.78Z" style="fill:#fff"/><path d="M37,52.9a7.09,7.09,0,0,1-6.11-6.76H22.3a10.4,10.4,0,0,0-10.39,10.4v2.84a.62.62,0,0,0,.62.62H37Z" style="fill:#fff"/><path d="M53.68,46.14H45.1A7.09,7.09,0,0,1,39,52.9V60H63.45a.63.63,0,0,0,.63-.62V56.54A10.4,10.4,0,0,0,53.68,46.14Z" style="fill:#fff"/></svg>