<svg xmlns="http://www.w3.org/2000/svg" xmlns:xlink="http://www.w3.org/1999/xlink" viewBox="0 0 335.23 167.62"><defs><linearGradient id="linear-gradient" y1="83.81" x2="335.23" y2="83.81" gradientUnits="userSpaceOnUse"><stop offset="0" stop-color="#e93e3a"/><stop offset="0.5" stop-color="#fff33b"/><stop offset="0.97" stop-color="#39b54a"/></linearGradient></defs><title>MITTER BG3</title><g style="isolation:isolate"><g id="Layer_2" data-name="Layer 2"><g id="Layer_1-2" data-name="Layer 1"><path d="M167.62,0A167.61,167.61,0,0,0,0,167.62H29.78a137.84,137.84,0,1,1,275.67,0h29.78A167.61,167.61,0,0,0,167.62,0Z" style="fill:url(#linear-gradient)"/><line x1="20.29" y1="119.63" x2="36.62" y2="124.93" style="fill:#231f20;stroke:#fff;stroke-miterlimit:10"/><line x1="42.42" y1="76.35" x2="56.31" y2="86.44" style="fill:#231f20;stroke:#fff;stroke-miterlimit:10"/><line x1="76.84" y1="42.04" x2="86.93" y2="55.92" style="fill:#231f20;stroke:#fff;stroke-miterlimit:10"/><line x1="120.18" y1="20.04" x2="125.48" y2="36.36" style="fill:#231f20;stroke:#fff;stroke-miterlimit:10"/><line x1="168.2" y1="12.51" x2="168.2" y2="29.67" style="fill:#231f20;stroke:#fff;stroke-miterlimit:10"/><line x1="216.19" y1="20.18" x2="210.89" y2="36.51" style="fill:#231f20;stroke:#fff;stroke-miterlimit:10"/><line x1="259.46" y1="42.31" x2="249.37" y2="56.2" style="fill:#231f20;stroke:#fff;stroke-miterlimit:10"/><line x1="293.78" y1="76.73" x2="279.89" y2="86.82" style="fill:#231f20;stroke:#fff;stroke-miterlimit:10"/><line x1="315.78" y1="120.07" x2="299.45" y2="125.38" style="fill:#231f20;stroke:#fff;stroke-miterlimit:10"/><line x1="305.7" y1="166.97" x2="322.86" y2="166.97" style="fill:#231f20;stroke:#fff;stroke-miterlimit:10"/><line x1="12.63" y1="167.1" x2="29.8" y2="167.1" style="fill:#231f20;stroke:#fff;stroke-miterlimit:10"/><line x1="20.39" y1="144.27" x2="31.55" y2="146.04" style="fill:#231f20;stroke:#fff;stroke-miterlimit:10"/><line x1="34.95" y1="99.89" x2="45.01" y2="105.02" style="fill:#231f20;stroke:#fff;stroke-miterlimit:10"/><line x1="62.51" y1="62.19" x2="70.5" y2="70.17" style="fill:#231f20;stroke:#fff;stroke-miterlimit:10"/><line x1="80.37" y1="47.02" x2="87.01" y2="56.16" style="fill:#231f20;stroke:#fff;stroke-miterlimit:10"/><line x1="100.38" y1="34.84" x2="105.51" y2="44.91" style="fill:#231f20;stroke:#fff;stroke-miterlimit:10"/><line x1="144.84" y1="20.54" x2="146.61" y2="31.69" style="fill:#231f20;stroke:#fff;stroke-miterlimit:10"/><line x1="191.54" y1="20.67" x2="189.78" y2="31.83" style="fill:#231f20;stroke:#fff;stroke-miterlimit:10"/><line x1="235.92" y1="35.23" x2="230.79" y2="45.3" style="fill:#231f20;stroke:#fff;stroke-miterlimit:10"/><line x1="273.63" y1="62.79" x2="265.64" y2="70.78" style="fill:#231f20;stroke:#fff;stroke-miterlimit:10"/><line x1="300.97" y1="100.66" x2="290.91" y2="105.79" style="fill:#231f20;stroke:#fff;stroke-miterlimit:10"/><line x1="315.28" y1="145.12" x2="304.12" y2="146.89" style="fill:#231f20;stroke:#fff;stroke-miterlimit:10"/><g style="opacity:0.75;mix-blend-mode:multiply"><text transform="translate(11.42 167.62) rotate(-90)" style="font-size:12px;font-family:MyriadPro-Regular, Myriad Pro">0</text></g><text transform="translate(11.42 166.62) rotate(-90)" style="font-size:12px;fill:#fff;font-family:MyriadPro-Regular, Myriad Pro">0</text><g style="opacity:0.75;mix-blend-mode:multiply"><text transform="matrix(0.31, -0.95, 0.95, 0.31, 16.69, 125.79)" style="font-size:12px;font-family:MyriadPro-Regular, Myriad Pro">10</text></g><text transform="matrix(0.31, -0.95, 0.95, 0.31, 16.69, 124.79)" style="font-size:12px;fill:#fff;font-family:MyriadPro-Regular, Myriad Pro">10</text><g style="opacity:0.75;mix-blend-mode:multiply"><text transform="matrix(0.59, -0.81, 0.81, 0.59, 36.74, 81.29)" style="font-size:12px;font-family:MyriadPro-Regular, Myriad Pro">20</text></g><text transform="matrix(0.59, -0.81, 0.81, 0.59, 36.74, 80.29)" style="font-size:12px;fill:#fff;font-family:MyriadPro-Regular, Myriad Pro">20</text><g style="opacity:0.75;mix-blend-mode:multiply"><text transform="matrix(0.81, -0.59, 0.59, 0.81, 69.51, 45.47)" style="font-size:12px;font-family:MyriadPro-Regular, Myriad Pro">30</text></g><text transform="matrix(0.81, -0.59, 0.59, 0.81, 69.51, 44.47)" style="font-size:12px;fill:#fff;font-family:MyriadPro-Regular, Myriad Pro">30</text><g style="opacity:0.75;mix-blend-mode:multiply"><text transform="translate(112.69 20.84) rotate(-18)" style="font-size:12px;font-family:MyriadPro-Regular, Myriad Pro">40</text></g><text transform="translate(112.69 19.84) rotate(-18)" style="font-size:12px;fill:#fff;font-family:MyriadPro-Regular, Myriad Pro">40</text><g style="opacity:0.75;mix-blend-mode:multiply"><text transform="translate(164.07 11.71)" style="font-size:12px;font-family:MyriadPro-Regular, Myriad Pro">50</text></g><text transform="translate(163.07 10.71)" style="font-size:12px;fill:#fff;font-family:MyriadPro-Regular, Myriad Pro">50</text><g style="opacity:0.75;mix-blend-mode:multiply"><text transform="matrix(0.95, 0.31, -0.31, 0.95, 211.9, 16.97)" style="font-size:12px;font-family:MyriadPro-Regular, Myriad Pro">60</text></g><text transform="matrix(0.95, 0.31, -0.31, 0.95, 211.9, 15.97)" style="font-size:12px;fill:#fff;font-family:MyriadPro-Regular, Myriad Pro">60</text><g style="opacity:0.75;mix-blend-mode:multiply"><text transform="matrix(0.81, 0.59, -0.59, 0.81, 256.4, 39.02)" style="font-size:12px;font-family:MyriadPro-Regular, Myriad Pro">70</text></g><text transform="matrix(0.81, 0.59, -0.59, 0.81, 256.4, 38.02)" style="font-size:12px;fill:#fff;font-family:MyriadPro-Regular, Myriad Pro">70</text><g style="opacity:0.75;mix-blend-mode:multiply"><text transform="matrix(0.59, 0.81, -0.81, 0.59, 292.21, 72.79)" style="font-size:12px;font-family:MyriadPro-Regular, Myriad Pro">80</text></g><text transform="matrix(0.59, 0.81, -0.81, 0.59, 292.21, 71.79)" style="font-size:12px;fill:#fff;font-family:MyriadPro-Regular, Myriad Pro">80</text><g style="opacity:0.75;mix-blend-mode:multiply"><text transform="translate(315.85 115.97) rotate(72)" style="font-size:12px;font-family:MyriadPro-Regular, Myriad Pro">90</text></g><text transform="translate(315.85 114.97) rotate(72)" style="font-size:12px;fill:#fff;font-family:MyriadPro-Regular, Myriad Pro">90</text><g style="opacity:0.75;mix-blend-mode:multiply"><text transform="translate(323.99 147.35) rotate(90)" style="font-size:12px;font-family:MyriadPro-Regular, Myriad Pro">100</text></g><text transform="translate(323.99 146.35) rotate(90)" style="font-size:12px;fill:#fff;font-family:MyriadPro-Regular, Myriad Pro">100</text></g></g></g></svg>