<svg xmlns="http://www.w3.org/2000/svg" xmlns:xlink="http://www.w3.org/1999/xlink" viewBox="0 0 335.43 183.24"><defs><linearGradient id="linear-gradient" x1="0.2" y1="91.79" x2="335.43" y2="91.79" gradientUnits="userSpaceOnUse"><stop offset="0" stop-color="#e93e3a"/><stop offset="0.5" stop-color="#fff33b"/><stop offset="0.97" stop-color="#39b54a"/></linearGradient><radialGradient id="radial-gradient" cx="167.82" cy="174.84" r="166.95" gradientUnits="userSpaceOnUse"><stop offset="0.87" stop-color="#231f20" stop-opacity="0"/><stop offset="0.98" stop-color="#0a090a" stop-opacity="0.14"/><stop offset="1" stop-opacity="0.2"/></radialGradient></defs><title>mitter bg9_1</title><g style="isolation:isolate"><g id="Layer_2" data-name="Layer 2"><g id="Layer_1-2" data-name="Layer 1"><path d="M335.43,168q0,7.74-.69,15.29H305.43A139.09,139.09,0,1,0,28.14,167.56,140,140,0,0,0,29,183.24H.89Q.2,175.7.2,168a167.62,167.62,0,0,1,335.23,0Z" style="fill:url(#linear-gradient)"/><path d="M335.43,168q0,7.74-.69,15.29H305.43A139.09,139.09,0,1,0,28.14,167.56,140,140,0,0,0,29,183.24H.89Q.2,175.7.2,168a167.62,167.62,0,0,1,335.23,0Z" style="mix-blend-mode:darken;fill:url(#radial-gradient)"/><line x1="19.91" y1="118.96" x2="36.24" y2="124.27" style="fill:#231f20;stroke:#fff;stroke-miterlimit:10"/><line x1="42.04" y1="75.69" x2="55.93" y2="85.78" style="fill:#231f20;stroke:#fff;stroke-miterlimit:10"/><line x1="76.46" y1="41.38" x2="86.55" y2="55.26" style="fill:#231f20;stroke:#fff;stroke-miterlimit:10"/><line x1="119.8" y1="19.38" x2="125.11" y2="35.7" style="fill:#231f20;stroke:#fff;stroke-miterlimit:10"/><line x1="167.82" y1="11.84" x2="167.82" y2="29.01" style="fill:#231f20;stroke:#fff;stroke-miterlimit:10"/><line x1="215.81" y1="19.52" x2="210.51" y2="35.85" style="fill:#231f20;stroke:#fff;stroke-miterlimit:10"/><line x1="259.08" y1="41.65" x2="248.99" y2="55.54" style="fill:#231f20;stroke:#fff;stroke-miterlimit:10"/><line x1="293.4" y1="76.07" x2="279.51" y2="86.16" style="fill:#231f20;stroke:#fff;stroke-miterlimit:10"/><line x1="315.4" y1="119.41" x2="299.08" y2="124.71" style="fill:#231f20;stroke:#fff;stroke-miterlimit:10"/><line x1="305.32" y1="166.43" x2="322.48" y2="166.43" style="fill:#231f20;stroke:#fff;stroke-miterlimit:10"/><line x1="12.25" y1="166.44" x2="29.42" y2="166.44" style="fill:#231f20;stroke:#fff;stroke-miterlimit:10"/><line x1="20.01" y1="143.61" x2="31.17" y2="145.38" style="fill:#231f20;stroke:#fff;stroke-miterlimit:10"/><line x1="34.57" y1="99.23" x2="44.64" y2="104.36" style="fill:#231f20;stroke:#fff;stroke-miterlimit:10"/><line x1="62.13" y1="61.53" x2="70.12" y2="69.51" style="fill:#231f20;stroke:#fff;stroke-miterlimit:10"/><line x1="79.99" y1="46.36" x2="86.63" y2="55.5" style="fill:#231f20;stroke:#fff;stroke-miterlimit:10"/><line x1="100" y1="34.18" x2="105.13" y2="44.25" style="fill:#231f20;stroke:#fff;stroke-miterlimit:10"/><line x1="144.46" y1="19.88" x2="146.23" y2="31.03" style="fill:#231f20;stroke:#fff;stroke-miterlimit:10"/><line x1="191.17" y1="20.01" x2="189.4" y2="31.17" style="fill:#231f20;stroke:#fff;stroke-miterlimit:10"/><line x1="235.54" y1="34.57" x2="230.42" y2="44.64" style="fill:#231f20;stroke:#fff;stroke-miterlimit:10"/><line x1="273.25" y1="62.13" x2="265.26" y2="70.12" style="fill:#231f20;stroke:#fff;stroke-miterlimit:10"/><line x1="300.59" y1="100" x2="290.53" y2="105.13" style="fill:#231f20;stroke:#fff;stroke-miterlimit:10"/><line x1="314.9" y1="144.46" x2="303.74" y2="146.23" style="fill:#231f20;stroke:#fff;stroke-miterlimit:10"/><g style="opacity:0.75;mix-blend-mode:multiply"><text transform="translate(10.04 169.96) rotate(-90)" style="font-size:12px;font-family:MyriadPro-Regular, Myriad Pro">0</text></g><text transform="translate(10.04 168.96) rotate(-90)" style="font-size:12px;fill:#fff;font-family:MyriadPro-Regular, Myriad Pro">0</text><g style="opacity:0.75;mix-blend-mode:multiply"><text transform="matrix(0.31, -0.95, 0.95, 0.31, 16.31, 125.13)" style="font-size:12px;font-family:MyriadPro-Regular, Myriad Pro">10</text></g><text transform="matrix(0.31, -0.95, 0.95, 0.31, 16.31, 124.13)" style="font-size:12px;fill:#fff;font-family:MyriadPro-Regular, Myriad Pro">10</text><g style="opacity:0.75;mix-blend-mode:multiply"><text transform="matrix(0.59, -0.81, 0.81, 0.59, 36.36, 80.62)" style="font-size:12px;font-family:MyriadPro-Regular, Myriad Pro">20</text></g><text transform="matrix(0.59, -0.81, 0.81, 0.59, 36.36, 79.62)" style="font-size:12px;fill:#fff;font-family:MyriadPro-Regular, Myriad Pro">20</text><g style="opacity:0.75;mix-blend-mode:multiply"><text transform="matrix(0.81, -0.59, 0.59, 0.81, 69.13, 44.8)" style="font-size:12px;font-family:MyriadPro-Regular, Myriad Pro">30</text></g><text transform="matrix(0.81, -0.59, 0.59, 0.81, 69.13, 43.8)" style="font-size:12px;fill:#fff;font-family:MyriadPro-Regular, Myriad Pro">30</text><g style="opacity:0.75;mix-blend-mode:multiply"><text transform="translate(112.31 20.18) rotate(-18)" style="font-size:12px;font-family:MyriadPro-Regular, Myriad Pro">40</text></g><text transform="translate(112.31 19.18) rotate(-18)" style="font-size:12px;fill:#fff;font-family:MyriadPro-Regular, Myriad Pro">40</text><g style="opacity:0.75;mix-blend-mode:multiply"><text transform="translate(163.69 11.04)" style="font-size:12px;font-family:MyriadPro-Regular, Myriad Pro">50</text></g><text transform="translate(162.69 10.04)" style="font-size:12px;fill:#fff;font-family:MyriadPro-Regular, Myriad Pro">50</text><g style="opacity:0.75;mix-blend-mode:multiply"><text transform="matrix(0.95, 0.31, -0.31, 0.95, 211.52, 16.31)" style="font-size:12px;font-family:MyriadPro-Regular, Myriad Pro">60</text></g><text transform="matrix(0.95, 0.31, -0.31, 0.95, 211.52, 15.31)" style="font-size:12px;fill:#fff;font-family:MyriadPro-Regular, Myriad Pro">60</text><g style="opacity:0.75;mix-blend-mode:multiply"><text transform="matrix(0.81, 0.59, -0.59, 0.81, 256.02, 38.36)" style="font-size:12px;font-family:MyriadPro-Regular, Myriad Pro">70</text></g><text transform="matrix(0.81, 0.59, -0.59, 0.81, 256.02, 37.36)" style="font-size:12px;fill:#fff;font-family:MyriadPro-Regular, Myriad Pro">70</text><g style="opacity:0.75;mix-blend-mode:multiply"><text transform="matrix(0.59, 0.81, -0.81, 0.59, 291.84, 72.13)" style="font-size:12px;font-family:MyriadPro-Regular, Myriad Pro">80</text></g><text transform="matrix(0.59, 0.81, -0.81, 0.59, 291.84, 71.13)" style="font-size:12px;fill:#fff;font-family:MyriadPro-Regular, Myriad Pro">80</text><g style="opacity:0.75;mix-blend-mode:multiply"><text transform="translate(315.47 115.31) rotate(72)" style="font-size:12px;font-family:MyriadPro-Regular, Myriad Pro">90</text></g><text transform="translate(315.47 114.31) rotate(72)" style="font-size:12px;fill:#fff;font-family:MyriadPro-Regular, Myriad Pro">90</text><g style="opacity:0.75;mix-blend-mode:multiply"><text transform="translate(324.61 156.69) rotate(90)" style="font-size:12px;font-family:MyriadPro-Regular, Myriad Pro">100</text></g><text transform="translate(324.61 155.69) rotate(90)" style="font-size:12px;fill:#fff;font-family:MyriadPro-Regular, Myriad Pro">100</text><path d="M28.86,166.38C28.86,90,90.81,29,167.24,29S305.59,90.54,305.59,167" style="fill:none;stroke:#fff;stroke-miterlimit:10"/><path d="M241.07,67.74a123.75,123.75,0,0,1,50.08,99.61" style="fill:none;stroke:#39b54a;stroke-miterlimit:10;stroke-width:14px"/><text transform="translate(264.55 97.68) rotate(55.69)" style="font-size:12px;fill:#fff;font-family:MyriadPro-Bold, Myriad Pro;font-weight:700">B</text><text transform="translate(268.56 103.58) rotate(58.8)" style="font-size:12px;fill:#fff;font-family:MyriadPro-Bold, Myriad Pro;font-weight:700">E</text><text transform="translate(271.84 108.97) rotate(61.74)" style="font-size:12px;fill:#fff;font-family:MyriadPro-Bold, Myriad Pro;font-weight:700">S</text><text transform="translate(274.85 114.58) rotate(64.71)" style="font-size:12px;fill:#fff;font-family:MyriadPro-Bold, Myriad Pro;font-weight:700">T</text><path d="M93.52,66.56a125.54,125.54,0,0,1,147.55,1.18" style="fill:none;stroke:#fbb040;stroke-miterlimit:10;stroke-width:14px"/><text transform="matrix(0.99, -0.11, 0.11, 0.99, 149.19, 49.05)" style="font-size:12px;fill:#fff;font-family:MyriadPro-Bold, Myriad Pro;font-weight:700">A</text><text transform="matrix(1, -0.06, 0.06, 1, 156.22, 48.26)" style="font-size:12px;fill:#fff;font-family:MyriadPro-Bold, Myriad Pro;font-weight:700">V</text><text transform="translate(163.74 47.87) rotate(-0.36)" style="font-size:12px;fill:#fff;font-family:MyriadPro-Bold, Myriad Pro;font-weight:700">E</text><text transform="translate(170.03 47.83) rotate(2.9)" style="font-size:12px;fill:#fff;font-family:MyriadPro-Bold, Myriad Pro;font-weight:700">R</text><text transform="translate(177.14 48.18) rotate(6.3)" style="font-size:12px;fill:#fff;font-family:MyriadPro-Bold, Myriad Pro;font-weight:700">A</text><text transform="translate(184.54 48.98) rotate(9.78)" style="font-size:12px;fill:#fff;font-family:MyriadPro-Bold, Myriad Pro;font-weight:700">G</text><text transform="matrix(0.97, 0.23, -0.23, 0.97, 192.51, 50.37)" style="font-size:12px;fill:#fff;font-family:MyriadPro-Bold, Myriad Pro;font-weight:700">E</text><path d="M42.07,166.83A122.93,122.93,0,0,1,93.52,66.56" style="fill:none;stroke:#ed1c24;stroke-miterlimit:10;stroke-width:14px"/><text transform="translate(54.15 124.14) rotate(-66.49)" style="font-size:12px;fill:#fff;font-family:MyriadPro-Bold, Myriad Pro;font-weight:700">P</text><text transform="translate(56.85 117.85) rotate(-62.9)" style="font-size:12px;fill:#fff;font-family:MyriadPro-Bold, Myriad Pro;font-weight:700">O</text><text transform="translate(60.7 110.32) rotate(-58.95)" style="font-size:12px;fill:#fff;font-family:MyriadPro-Bold, Myriad Pro;font-weight:700">O</text><text transform="translate(65.1 103.05) rotate(-55.34)" style="font-size:12px;fill:#fff;font-family:MyriadPro-Bold, Myriad Pro;font-weight:700">R</text></g></g></g></svg>