<svg xmlns="http://www.w3.org/2000/svg" xmlns:xlink="http://www.w3.org/1999/xlink" viewBox="0 0 335.23 182.9">
   <defs>
      <linearGradient id="linear-gradient" y1="91.45" x2="335.23" y2="91.45" gradientUnits="userSpaceOnUse">
         <stop offset="0" stop-color="#ff0000"/>
         <stop offset="0.5" stop-color="#fff33b"/>
         <stop offset="0.97" stop-color="#008000"/>
      </linearGradient>
      <radialGradient id="radial-gradient" cx="167.61" cy="174.51" r="166.95" gradientUnits="userSpaceOnUse">
         <stop offset="0.87" stop-color="#231f20" stop-opacity="0"/>
         <stop offset="0.98" stop-color="#0a090a" stop-opacity="0.14"/>
         <stop offset="1" stop-opacity="0.2"/>
      </radialGradient>
   </defs>
   <title>mitter13</title>
   <g style="isolation:isolate">
      <g id="Layer_2" data-name="Layer 2">
         <g id="Layer_1-2" data-name="Layer 1">
            <path d="M335.23,167.61q0,7.74-.69,15.29H305.23A139.09,139.09,0,1,0,27.94,167.22a140,140,0,0,0,.88,15.68H.69Q0,175.36,0,167.61a167.62,167.62,0,0,1,335.23,0Z" style="fill:url(#linear-gradient)"/>
            <path d="M335.23,167.61q0,7.74-.69,15.29H305.23A139.09,139.09,0,1,0,27.94,167.22a140,140,0,0,0,.88,15.68H.69Q0,175.36,0,167.61a167.62,167.62,0,0,1,335.23,0Z" style="mix-blend-mode:darken;fill:url(#radial-gradient)"/>
            <line x1="19.71" y1="118.63" x2="36.03" y2="123.93" style="fill:#231f20;stroke:#fff;stroke-miterlimit:10"/>
            <line x1="41.84" y1="75.35" x2="55.73" y2="85.44" style="fill:#231f20;stroke:#fff;stroke-miterlimit:10"/>
            <line x1="76.26" y1="41.04" x2="86.35" y2="54.92" style="fill:#231f20;stroke:#fff;stroke-miterlimit:10"/>
            <line x1="119.6" y1="19.04" x2="124.9" y2="35.36" style="fill:#231f20;stroke:#fff;stroke-miterlimit:10"/>
            <line x1="167.61" y1="11.51" x2="167.61" y2="28.67" style="fill:#231f20;stroke:#fff;stroke-miterlimit:10"/>
            <line x1="215.61" y1="19.18" x2="210.3" y2="35.51" style="fill:#231f20;stroke:#fff;stroke-miterlimit:10"/>
            <line x1="258.88" y1="41.31" x2="248.79" y2="55.2" style="fill:#231f20;stroke:#fff;stroke-miterlimit:10"/>
            <line x1="293.2" y1="75.73" x2="279.31" y2="85.82" style="fill:#231f20;stroke:#fff;stroke-miterlimit:10"/>
            <line x1="315.2" y1="119.07" x2="298.87" y2="124.38" style="fill:#231f20;stroke:#fff;stroke-miterlimit:10"/>
            <line x1="305.11" y1="166.09" x2="322.28" y2="166.09" style="fill:#231f20;stroke:#fff;stroke-miterlimit:10"/>
            <line x1="12.05" y1="166.1" x2="29.22" y2="166.1" style="fill:#231f20;stroke:#fff;stroke-miterlimit:10"/>
            <line x1="19.81" y1="143.27" x2="30.96" y2="145.04" style="fill:#231f20;stroke:#fff;stroke-miterlimit:10"/>
            <line x1="34.37" y1="98.89" x2="44.43" y2="104.02" style="fill:#231f20;stroke:#fff;stroke-miterlimit:10"/>
            <line x1="61.93" y1="61.19" x2="69.92" y2="69.17" style="fill:#231f20;stroke:#fff;stroke-miterlimit:10"/>
            <line x1="79.79" y1="46.02" x2="86.43" y2="55.16" style="fill:#231f20;stroke:#fff;stroke-miterlimit:10"/>
            <line x1="99.79" y1="33.84" x2="104.92" y2="43.91" style="fill:#231f20;stroke:#fff;stroke-miterlimit:10"/>
            <line x1="144.26" y1="19.54" x2="146.02" y2="30.69" style="fill:#231f20;stroke:#fff;stroke-miterlimit:10"/>
            <line x1="190.96" y1="19.67" x2="189.2" y2="30.83" style="fill:#231f20;stroke:#fff;stroke-miterlimit:10"/>
            <line x1="235.34" y1="34.23" x2="230.21" y2="44.3" style="fill:#231f20;stroke:#fff;stroke-miterlimit:10"/>
            <line x1="273.05" y1="61.79" x2="265.06" y2="69.78" style="fill:#231f20;stroke:#fff;stroke-miterlimit:10"/>
            <line x1="300.39" y1="99.66" x2="290.33" y2="104.79" style="fill:#231f20;stroke:#fff;stroke-miterlimit:10"/>
            <line x1="314.7" y1="144.12" x2="303.54" y2="145.89" style="fill:#231f20;stroke:#fff;stroke-miterlimit:10"/>
            <g style="opacity:0.75;mix-blend-mode:multiply">
               <text transform="translate(9.84 169.62) rotate(-90)" style="font-size:11px;font-family:MyriadPro-Semibold, Myriad Pro;font-weight:600">0</text>
            </g>
            <text transform="translate(9.84 168.62) rotate(-90)" style="font-size:11px;fill:#fff;font-family:MyriadPro-Semibold, Myriad Pro;font-weight:600">0</text>
            <g style="opacity:0.75;mix-blend-mode:multiply">
               <text transform="matrix(0.31, -0.95, 0.95, 0.31, 16.11, 124.79)" style="font-size:11px;font-family:MyriadPro-Semibold, Myriad Pro;font-weight:600">10</text>
            </g>
            <text transform="matrix(0.31, -0.95, 0.95, 0.31, 16.11, 123.79)" style="font-size:11px;fill:#fff;font-family:MyriadPro-Semibold, Myriad Pro;font-weight:600">10</text>
            <g style="opacity:0.75;mix-blend-mode:multiply">
               <text transform="matrix(0.59, -0.81, 0.81, 0.59, 37.15, 80.29)" style="font-size:11px;font-family:MyriadPro-Semibold, Myriad Pro;font-weight:600">20</text>
            </g>
            <text transform="matrix(0.59, -0.81, 0.81, 0.59, 37.15, 79.29)" style="font-size:11px;fill:#fff;font-family:MyriadPro-Semibold, Myriad Pro;font-weight:600">20</text>
            <g style="opacity:0.75;mix-blend-mode:multiply">
               <text transform="matrix(0.81, -0.59, 0.59, 0.81, 69.92, 44.46)" style="font-size:11px;font-family:MyriadPro-Semibold, Myriad Pro;font-weight:600">30</text>
            </g>
            <text transform="matrix(0.81, -0.59, 0.59, 0.81, 69.92, 43.46)" style="font-size:11px;fill:#fff;font-family:MyriadPro-Semibold, Myriad Pro;font-weight:600">30</text>
            <g style="opacity:0.75;mix-blend-mode:multiply">
               <text transform="translate(113.11 20.84) rotate(-18)" style="font-size:11px;font-family:MyriadPro-Semibold, Myriad Pro;font-weight:600">40</text>
            </g>
            <text transform="translate(113.11 19.84) rotate(-18)" style="font-size:11px;fill:#fff;font-family:MyriadPro-Semibold, Myriad Pro;font-weight:600">40</text>
            <g style="opacity:0.75;mix-blend-mode:multiply">
               <text transform="translate(163.48 10.71)" style="font-size:11px;font-family:MyriadPro-Semibold, Myriad Pro;font-weight:600">50</text>
            </g>
            <text transform="translate(162.48 9.71)" style="font-size:11px;fill:#fff;font-family:MyriadPro-Semibold, Myriad Pro;font-weight:600">50</text>
            <g style="opacity:0.75;mix-blend-mode:multiply">
               <text transform="matrix(0.95, 0.31, -0.31, 0.95, 210.31, 16.97)" style="font-size:11px;font-family:MyriadPro-Semibold, Myriad Pro;font-weight:600">60</text>
            </g>
            <text transform="matrix(0.95, 0.31, -0.31, 0.95, 210.31, 15.97)" style="font-size:11px;fill:#fff;font-family:MyriadPro-Semibold, Myriad Pro;font-weight:600">60</text>
            <g style="opacity:0.75;mix-blend-mode:multiply">
               <text transform="matrix(0.81, 0.59, -0.59, 0.81, 254.81, 38.02)" style="font-size:11px;font-family:MyriadPro-Semibold, Myriad Pro;font-weight:600">70</text>
            </g>
            <text transform="matrix(0.81, 0.59, -0.59, 0.81, 254.81, 37.02)" style="font-size:11px;fill:#fff;font-family:MyriadPro-Semibold, Myriad Pro;font-weight:600">70</text>
            <g style="opacity:0.75;mix-blend-mode:multiply">
               <text transform="matrix(0.59, 0.81, -0.81, 0.59, 290.64, 70.79)" style="font-size:11px;font-family:MyriadPro-Semibold, Myriad Pro;font-weight:600">80</text>
            </g>
            <text transform="matrix(0.59, 0.81, -0.81, 0.59, 290.64, 69.79)" style="font-size:11px;fill:#fff;font-family:MyriadPro-Semibold, Myriad Pro;font-weight:600">80</text>
            <g style="opacity:0.75;mix-blend-mode:multiply">
               <text transform="translate(314.27 113.97) rotate(72)" style="font-size:11px;font-family:MyriadPro-Semibold, Myriad Pro;font-weight:600">90</text>
            </g>
            <text transform="translate(314.27 112.97) rotate(72)" style="font-size:11px;fill:#fff;font-family:MyriadPro-Semibold, Myriad Pro;font-weight:600">90</text>
            <g style="opacity:0.75;mix-blend-mode:multiply">
               <text transform="translate(324.4 156.35) rotate(90)" style="font-size:11px;font-family:MyriadPro-Semibold, Myriad Pro;font-weight:600">100</text>
            </g>
            <text transform="translate(324.4 155.35) rotate(90)" style="font-size:11px;fill:#fff;font-family:MyriadPro-Semibold, Myriad Pro;font-weight:600">100</text>
            <path d="M28.66,166.05c0-76.43,62-137.38,138.37-137.38s138.36,61.53,138.36,138" style="fill:none;stroke:#fff;stroke-miterlimit:10"/>
            <path d="M241.5,65.76a123.75,123.75,0,0,1,50.08,99.61" style="fill:none;stroke:#008000;stroke-miterlimit:10;stroke-width:3px"/>
            <path d="M93.94,64.59A125.53,125.53,0,0,1,241.5,65.76" style="fill:none;stroke:#fbb040;stroke-miterlimit:10;stroke-width:3px"/>
            <path d="M42.49,164.85A122.9,122.9,0,0,1,93.94,64.59" style="fill:none;stroke:#ff0000;stroke-miterlimit:10;stroke-width:3px"/>
         </g>
      </g>
   </g>
</svg>