<svg xmlns="http://www.w3.org/2000/svg" viewBox="0 0 23 19.93"><title>spectral3</title><g id="Layer_2" data-name="Layer 2"><g id="Layer_1-2" data-name="Layer 1"><path d="M19.35,9.07l1.83-1.41L23,6.25l-2-1.1L12.21.39,11.5,0l-.72.39L2,5.15,0,6.25,1.82,7.66,3.65,9.07,2,10l-2,1.1,1.82,1.4,8.76,6.76.92.71.91-.71,8.77-6.76L23,11.06,21,10ZM2.73,6.47,11.5,1.71l8.76,4.76L17.9,8.29l-1.29,1L11.5,13.23,6.39,9.29l-1.3-1ZM11.5,18,2.73,11.28,5,10.07l5.63,4.35.92.71.91-.71,5.64-4.35,2.21,1.21Z" style="fill:#fff"/></g></g></svg>